<svg width="31" height="23" fill="none" xmlns="http://www.w3.org/2000/svg"><path d="M19.525 2c2.514 0 4.925 1 6.702 2.782a9.51 9.51 0 0 1 0 13.436A9.468 9.468 0 0 1 19.525 21H13.44a9.403 9.403 0 0 1-5.358-1.66l-.998-.68-.868.84a5.482 5.482 0 0 1-2.564 1.19 8.599 8.599 0 0 0 1.626-3.59l.11-.6-.27-.48a9.527 9.527 0 0 1 .2-9.372 9.499 9.499 0 0 1 3.45-3.397A9.472 9.472 0 0 1 13.437 2h6.087zm0-1.5H13.44C11.532.5 9.66.997 8.004 1.942a10.987 10.987 0 0 0-4.008 3.95A11.018 11.018 0 0 0 3.81 16.78 8.001 8.001 0 0 1 .757 21.5a.54.54 0 0 0 .3 1c1.995-.08 4.57-.42 6.155-1.9a10.958 10.958 0 0 0 6.226 1.9h6.087c2.91 0 5.702-1.16 7.76-3.222A11.012 11.012 0 0 0 30.5 11.5a11.01 11.01 0 0 0-3.215-7.778A10.963 10.963 0 0 0 19.525.5z" fill="currentColor"></path></svg>
